<svg fill="none"
  height="32"
  viewBox="0 0 94 32"
  width="94"
  xmlns="http://www.w3.org/2000/svg"
>
  <path d="M0 1.21927C2.45416 1.21927 3.49325 2.934 4.59615 4.77431L13.6289 20.3005C14.055 21.0746 14.4743 22.0107 14.4629 22.8875C14.4288 25.1707 11.471 26.0064 9.70044 26.0841C8.41539 26.1281 7.1381 25.8676 5.97248 25.3237L5.25241 26.2576C5.67169 28.0477 7.32604 30.2236 9.60018 30.2054C13.5492 30.178 15.6228 26.5521 17.2088 23.6113L20.1483 18.152L11.6214 3.48883C10.833 2.17824 12.1273 1.22383 13.5036 1.20557L13.8089 0H0.314461L0 1.21927Z"
    fill="url(#paint0_linear)"
  />

  <path d="M72.538 0.771745C73.0144 1.12737 73.5926 1.31946 74.1866 1.31946C74.7807 1.31946 75.3589 1.12737 75.8353 0.771745L75.3112 0C74.9874 0.245398 74.5926 0.378186 74.1866 0.378186C73.7807 0.378186 73.3859 0.245398 73.0621 0L72.538 0.771745ZM76.7536 8.23803V1.94534H75.4753L72.8866 6.2356V1.94534H71.6197V8.23803H72.898L75.473 3.96832V8.23803H76.7513H76.7536Z"
    fill="#292929"
  />

  <path d="M34.0917 6.28582C34.0917 6.83381 33.5448 7.16716 33.0481 7.16716C32.6443 7.15695 32.2507 7.03785 31.9087 6.82239V3.42489C32.2533 3.13984 32.6834 2.97902 33.1301 2.96823C33.2537 2.96335 33.377 2.98323 33.4929 3.02672C33.6087 3.0702 33.7147 3.13641 33.8047 3.22146C33.8947 3.30652 33.9668 3.40871 34.0169 3.52206C34.067 3.6354 34.0939 3.75761 34.0963 3.88154V6.28582H34.0917ZM35.4088 6.14883V3.97744C35.4088 2.60748 34.6796 1.83117 33.3283 1.83117C32.8179 1.83117 31.9406 2.03666 31.5829 2.32892C31.4862 2.10562 31.3099 1.9265 31.0884 1.8266L30.284 2.57094C30.5893 2.77644 30.5985 3.17829 30.5985 3.35639V10.2747H31.9019V8.06449C32.322 8.23821 32.7714 8.32967 33.2258 8.33391C34.4495 8.3362 35.4088 7.56673 35.4088 6.14883Z"
    fill="#292929"
  />

  <path d="M39.5652 6.79044C39.4047 6.97276 39.199 7.10948 38.969 7.18684C38.739 7.2642 38.4927 7.27947 38.2549 7.23111C38.0825 7.19046 37.9282 7.09389 37.8161 6.95641C37.7041 6.81893 37.6404 6.64822 37.6351 6.47078C37.6268 6.34138 37.646 6.21168 37.6916 6.09031C37.7372 5.96894 37.808 5.85869 37.8994 5.76689C37.9908 5.67509 38.1007 5.60385 38.2217 5.5579C38.3427 5.51194 38.4721 5.49234 38.6013 5.50039H39.5652V6.79272V6.79044ZM47.1692 8.23803V1.93164H42.867V5.83603C42.867 6.63061 42.3725 7.29276 41.6821 7.31102C41.3608 7.31102 40.8709 7.10553 40.8709 6.62604V3.96375C40.8709 2.66001 40.1873 1.83118 38.7152 1.83118C37.9004 1.81576 37.1125 2.12351 36.5231 2.68741L37.2067 3.5345C37.581 3.18635 38.0642 2.97898 38.5739 2.9477C39.0069 2.9477 39.5538 3.13949 39.5538 3.72629V4.39757H38.4851C36.9561 4.39757 36.3157 5.37025 36.3157 6.39315C36.3157 7.37724 36.8535 8.33621 38.3962 8.33621C38.9371 8.31398 39.4525 8.09948 39.85 7.73114C40.0949 7.96445 40.3865 8.14276 40.7056 8.25419C41.0247 8.36561 41.3638 8.40758 41.7003 8.37731C43.1838 8.33164 44.1363 7.53022 44.0975 5.79493V3.00935H45.8909V8.23803H47.1692Z"
    fill="#292929"
  />

  <path d="M64.4258 8.2426L62.0901 4.91359L64.2731 1.94534H62.7874L61.1536 4.41355H60.3515V1.93164H59.0709V8.2426H60.3264L60.3378 5.49126H61.1331L62.9355 8.2426H64.4258Z"
    fill="#292929"
  />

  <path d="M49.8056 7.16032H50.9017C51.4782 7.16032 51.7061 6.52786 51.7061 6.10545C51.7061 5.68305 51.4645 5.15105 50.8812 5.15105H49.8033V7.16032H49.8056ZM48.5022 8.25173V1.93164H49.8056V4.07335H50.7171C52.2461 4.07335 53.0574 5.00949 53.0437 6.0849C53.03 7.16032 52.2735 8.25173 50.7331 8.25173H48.4885H48.5022Z"
    fill="#292929"
  />

  <path d="M58.2391 7.53478L57.7036 6.58494C56.963 7.10781 56.5187 7.26992 56.1473 7.26992C55.6254 7.26992 55.1036 7.00049 55.1036 6.45251V3.99343C55.1036 3.43175 55.6232 3.03446 56.2225 3.03446C56.7176 3.07405 57.1786 3.30296 57.5099 3.67377L58.1935 2.81298C57.9419 2.4956 57.619 2.24227 57.2511 2.07364C56.8832 1.90501 56.4808 1.82584 56.0766 1.84259C54.7891 1.84259 53.7979 2.63489 53.7979 4.00028V6.36575C53.7979 7.70602 54.8324 8.33621 56.1062 8.33621C56.8932 8.33153 57.6527 8.04574 58.2482 7.53021"
    fill="#292929"
  />

  <path d="M70.298 8.23803V1.94534H69.0197L66.4311 6.2356V1.94534H65.1664V8.23803H66.4311H66.4447L69.0197 3.96832V8.23803H70.298Z"
    fill="#292929"
  />

  <path d="M30.2498 0H28.7914L27.6635 3.75141C27.643 3.81991 27.6156 3.89526 27.5997 3.97974C27.5837 4.06422 27.5678 4.11673 27.5609 4.16925C27.5541 4.22176 27.5473 4.24916 27.5473 4.25145C27.5473 4.25373 27.5473 4.22405 27.5336 4.17381C27.5199 4.12358 27.5108 4.06193 27.4949 3.98887C27.4804 3.91547 27.459 3.84361 27.431 3.77424L25.7653 0H24.2796L26.9457 5.87028L26.7771 6.29497C26.5629 6.76532 26.0023 7.28362 24.9951 7.32701L25.1546 8.34534C26.6312 8.37731 27.6042 7.71973 27.9825 6.61919L30.2498 0Z"
    fill="#292929"
  />

  <path d="M89.6511 11.4415C90.1275 11.7971 90.7057 11.9892 91.2997 11.9892C91.8938 11.9892 92.472 11.7971 92.9484 11.4415L92.4243 10.6697C92.1005 10.9151 91.7057 11.0479 91.2997 11.0479C90.8938 11.0479 90.4989 10.9151 90.1752 10.6697L89.6511 11.4415ZM93.8667 18.9077V12.6151H92.5883L90.0088 16.8962V12.6151H88.7419V18.9077H90.0088L92.5838 14.638V18.9077H93.8621H93.8667Z"
    fill="#292929"
  />

  <path d="M87.4111 12.6151H86.1328V18.9077H87.4111V12.6151Z"
    fill="#292929"
  />

  <path d="M82.1792 17.8437H83.2753C83.8518 17.8437 84.0796 17.2113 84.0796 16.7889C84.0796 16.3665 83.8381 15.8345 83.2548 15.8345H82.1769V17.8437H82.1792ZM80.8758 18.9351V12.6151H82.1792V14.7568H83.0907C84.6197 14.7568 85.4309 15.6929 85.4172 16.7683C85.4036 17.8437 84.647 18.9351 83.1066 18.9351H80.8621H80.8758Z"
    fill="#292929"
  />

  <path d="M30.3478 16.9578C30.3469 17.0796 30.321 17.1998 30.2719 17.3112C30.2227 17.4225 30.1513 17.5226 30.0621 17.6052C29.9728 17.6878 29.8676 17.7512 29.7529 17.7914C29.6382 17.8317 29.5165 17.8479 29.3953 17.8392C29.2497 17.8541 29.1027 17.8301 28.9694 17.7695C28.8361 17.7089 28.7212 17.614 28.6365 17.4944V14.2202V14.0855C28.7379 13.9627 28.8654 13.8641 29.0097 13.7969C29.154 13.7298 29.3114 13.6957 29.4705 13.6973C29.5889 13.6944 29.7066 13.7164 29.8161 13.7619C29.9255 13.8074 30.0241 13.8754 30.1057 13.9614C30.1873 14.0475 30.25 14.1497 30.2897 14.2615C30.3295 14.3734 30.3454 14.4923 30.3364 14.6106V16.9578H30.3478ZM27.3445 14.033V14.1106V17.4944C27.2598 17.614 27.1449 17.7089 27.0116 17.7695C26.8782 17.8301 26.7313 17.8541 26.5857 17.8392C26.4652 17.8466 26.3445 17.8294 26.2309 17.7886C26.1173 17.7477 26.0132 17.6842 25.9249 17.6017C25.8366 17.5192 25.7661 17.4196 25.7175 17.3089C25.6689 17.1982 25.6433 17.0788 25.6423 16.9578V14.5513C25.6333 14.4327 25.6493 14.3136 25.6891 14.2016C25.729 14.0896 25.7919 13.9873 25.8737 13.9012C25.9556 13.8151 26.0545 13.7472 26.1642 13.7019C26.2739 13.6565 26.3919 13.6347 26.5105 13.638C26.6701 13.637 26.828 13.6721 26.9723 13.7404C27.1167 13.8088 27.2438 13.9088 27.3445 14.033ZM31.674 16.8231V14.6494C31.674 13.2795 31.0451 12.5032 29.6938 12.5032C29.33 12.5034 28.9723 12.5969 28.6547 12.7749V11.5876H27.3445V12.7749C27.0269 12.5971 26.6692 12.5036 26.3054 12.5032C24.9541 12.5032 24.3252 13.2818 24.3252 14.6494V16.8208C24.3252 18.2387 25.1843 19.0082 26.4079 19.0082C26.7381 18.9987 27.0604 18.9052 27.3445 18.7365V20.9376H28.6479V18.7365C28.9323 18.9043 29.2545 18.997 29.5844 19.0059C30.8081 19.0082 31.674 18.2387 31.674 16.8208V16.8231Z"
    fill="#292929"
  />

  <path d="M36.0559 14.3983V15.1814H34.1099V14.4965C34.1099 13.9348 34.593 13.6151 35.1536 13.6151C35.4977 13.6151 36.065 13.8434 36.065 14.4074L36.0559 14.3983ZM37.5211 18.1839L36.972 17.1953C36.4889 17.6226 35.8707 17.8652 35.2265 17.8803C34.6021 17.8803 34.119 17.5355 34.119 16.8574V16.2591H37.3707V14.7248C37.3707 13.1265 36.3613 12.5146 35.149 12.5146C33.759 12.5146 32.7883 13.2292 32.7883 14.7979V16.8962C32.7883 18.3004 33.6998 19.0059 35.1103 19.0059C36.1471 19.0082 36.7714 18.6726 37.512 18.1748L37.5211 18.1839Z"
    fill="#292929"
  />

  <path d="M40.0642 17.846C40.3855 17.4944 40.586 16.8231 40.5701 16.1381V13.6996H42.3634V17.846H40.0642ZM43.6418 17.846V12.6173H39.3282V16.0948C39.3282 16.8871 38.8724 17.8278 38.1729 17.846H38.0544V20.4512H39.2963V18.926H43.0812V20.4535H44.3573V17.846H43.6418Z"
    fill="#292929"
  />

  <path d="M79.5541 18.9077V12.6151H78.2735V15.0741H75.6871V12.6151H74.4202V18.9077H75.6871V16.1518H78.2735V18.9077H79.5541Z"
    fill="#292929"
  />

  <path d="M54.5043 16.9692C54.5043 17.5172 53.9574 17.8506 53.4607 17.8506C53.0569 17.8404 52.6633 17.7213 52.3213 17.5058V14.1174C52.666 13.8325 53.0961 13.6718 53.5427 13.6608C53.6663 13.6559 53.7897 13.6758 53.9055 13.7193C54.0213 13.7628 54.1273 13.829 54.2173 13.914C54.3073 13.9991 54.3794 14.1013 54.4295 14.2146C54.4796 14.328 54.5066 14.4502 54.5089 14.5741V16.9692H54.5043ZM55.8214 16.8322V14.6609C55.8214 13.2909 55.0922 12.5146 53.741 12.5146C53.2305 12.5146 52.3532 12.7201 51.9955 13.0123C51.8964 12.7921 51.7195 12.6164 51.4987 12.5192L50.6943 13.2635C50.9997 13.469 51.0111 13.8708 51.0111 14.0489V20.949H52.3145V18.7502C52.7346 18.9239 53.184 19.0153 53.6384 19.0196C54.8621 19.0196 55.8283 18.2524 55.8283 16.8345L55.8214 16.8322Z"
    fill="#292929"
  />

  <path d="M59.9778 17.4761C59.497 18.0995 58.0659 18.1794 58.0477 17.1565C58.039 17.0265 58.0581 16.8961 58.1038 16.7741C58.1495 16.6521 58.2207 16.5414 58.3126 16.4492C58.4046 16.3571 58.5151 16.2857 58.6368 16.24C58.7586 16.1942 58.8887 16.175 59.0184 16.1838H59.9823V17.4761H59.9778ZM67.5909 18.9237V12.615H63.2796V16.5217C63.2796 17.3163 62.7851 17.9784 62.0947 17.9967C61.7734 17.9967 61.2835 17.7912 61.2835 17.3117V14.6494C61.2835 13.3457 60.5999 12.5169 59.1278 12.5169C58.3131 12.5017 57.5253 12.8094 56.9357 13.3731L57.6193 14.2202C57.9936 13.872 58.4768 13.6647 58.9865 13.6334C59.4195 13.6334 59.9664 13.8252 59.9664 14.412V15.0833H58.8977C57.3686 15.0833 56.7283 16.0559 56.7283 17.0788C56.7283 18.0629 57.2661 19.0219 58.8088 19.0219C59.3497 18.9997 59.8651 18.7852 60.2626 18.4168C60.5075 18.65 60.7992 18.8282 61.1183 18.9397C61.4373 19.0511 61.7764 19.0931 62.1129 19.063C63.5963 19.015 64.5488 18.2136 64.5101 16.4806V13.6996H66.3103V18.9283H67.5864L67.5909 18.9237Z"
    fill="#292929"
  />

  <path d="M70.2183 17.8437H71.3234C71.8999 17.8437 72.1278 17.2113 72.1278 16.7889C72.1278 16.3665 71.8863 15.8345 71.3029 15.8345H70.2251V17.8437H70.2183ZM68.9148 18.9351V12.6151H70.2183V14.7568H71.1297C72.661 14.7568 73.47 15.6929 73.4586 16.7683C73.4472 17.8437 72.6884 18.9351 71.148 18.9351H68.9034H68.9148Z"
    fill="#292929"
  />

  <path d="M48.4521 14.3983V15.1814H46.5061V14.4965C46.5061 13.9348 46.9892 13.6151 47.5497 13.6151C47.8938 13.6151 48.4612 13.8434 48.4612 14.4074L48.4521 14.3983ZM49.9036 18.1748L49.3545 17.1862C48.8714 17.6134 48.2532 17.856 47.609 17.8711C46.9846 17.8711 46.5015 17.5264 46.5015 16.8482V16.2591H49.7646V14.7248C49.7646 13.1265 48.7552 12.5146 47.5452 12.5146C46.1552 12.5146 45.1844 13.2292 45.1844 14.7979V16.8962C45.1844 18.3004 46.0959 19.0059 47.5064 19.0059C48.5364 19.0082 49.1699 18.6726 49.9036 18.1748Z"
    fill="#292929"
  />

  <path d="M29.7098 23.303H28.2901L27.005 28.1938C27.0013 27.8902 26.9537 27.5887 26.8637 27.2988L25.7699 23.3008L24.3252 23.3144C24.3252 23.3144 26.0092 28.6459 26.4034 29.5797C26.2097 30.404 25.7608 30.9497 24.8083 31.0433L24.9313 32C26.376 32 27.1964 31.2191 27.4949 30.2579L29.7098 23.303Z"
    fill="#292929"
  />

  <path d="M35.6595 29.5957V23.303H34.3811V25.7598H31.7925V23.303H30.5278V29.5957H31.7925V26.8398H34.3811V29.5957H35.6595Z"
    fill="#292929"
  />

  <path d="M42.1127 29.5957V23.303H40.8344L38.2458 27.5933V23.303H36.9811V29.5957H38.2458H38.2594L40.8344 25.326V29.5957H42.1127Z"
    fill="#292929"
  />

  <path d="M44.7401 28.502H45.8361C46.4127 28.502 46.6405 28.0454 46.6405 27.6184C46.6478 27.5094 46.6312 27.4001 46.5918 27.2983C46.5525 27.1964 46.4913 27.1044 46.4128 27.0286C46.3342 26.9529 46.24 26.8954 46.1368 26.86C46.0337 26.8246 45.924 26.8123 45.8156 26.8238H44.7378V28.4998L44.7401 28.502ZM44.7401 24.3922V25.7507H45.6789C45.7688 25.7598 45.8596 25.7486 45.9446 25.7179C46.0297 25.6873 46.1068 25.638 46.1704 25.5737C46.2339 25.5093 46.2823 25.4315 46.312 25.346C46.3417 25.2605 46.352 25.1694 46.342 25.0794C46.3466 24.9917 46.3335 24.904 46.3033 24.8215C46.2732 24.739 46.2267 24.6635 46.1667 24.5995C46.1066 24.5355 46.0343 24.4843 45.954 24.4491C45.8737 24.4138 45.7871 24.3952 45.6994 24.3944H44.7401V24.3922ZM43.4367 29.5912V23.303H45.6789C47.2193 23.303 47.7024 24.2437 47.6796 24.963C47.6839 25.2241 47.6143 25.4811 47.4788 25.7042C47.3433 25.9272 47.1474 26.1073 46.914 26.2233C47.2272 26.3279 47.4992 26.5297 47.6904 26.7993C47.8817 27.069 47.9825 27.3926 47.9781 27.7235C47.9781 28.6368 47.3082 29.5957 45.7655 29.5957H43.4344L43.4367 29.5912Z"
    fill="#292929"
  />

  <path d="M72.0048 23.303V24.3807H73.5907V29.6094H73.6728H74.8668H74.9489V24.3807H76.5371V23.303H72.0048Z"
    fill="#292929"
  />

  <path d="M82.4344 23.303V24.3807H84.0226L84.0204 29.6094H84.1047H85.2987H85.3808V24.3807H86.9667V23.303H82.4344Z"
    fill="#292929"
  />

  <path d="M71.0568 29.5957V23.303H69.7785L67.1898 27.5933V23.303H65.9252V29.5957H67.1898H67.2035L69.7785 25.326V29.5957H71.0568Z"
    fill="#292929"
  />

  <path d="M58.1959 27.6435C58.1959 28.1915 57.649 28.5249 57.1522 28.5249C56.7484 28.5146 56.3548 28.3955 56.0129 28.1801V24.7894C56.3574 24.5044 56.7876 24.3436 57.2342 24.3328C57.3579 24.3279 57.4812 24.3478 57.597 24.3913C57.7129 24.4347 57.8189 24.501 57.9089 24.586C57.9988 24.6711 58.071 24.7733 58.121 24.8866C58.1711 24.9999 58.1981 25.1222 58.2004 25.2461V27.6527L58.1959 27.6435ZM59.513 27.5065V25.3443C59.513 23.9743 58.7838 23.198 57.4325 23.198C56.9221 23.198 56.0448 23.4035 55.687 23.6958C55.5886 23.4745 55.4115 23.2979 55.1902 23.2003L54.3859 23.9446C54.6912 24.1501 54.7003 24.552 54.7003 24.7301V31.6233H56.006V29.4245C56.4261 29.5982 56.8755 29.6897 57.33 29.6939C58.5627 29.6825 59.513 28.9244 59.513 27.5065Z"
    fill="#292929"
  />

  <path d="M65.0912 28.8742L64.5557 27.9244C63.8151 28.4473 63.3708 28.6094 63.0016 28.6094C62.4798 28.6094 61.958 28.3399 61.958 27.792V25.3443C61.958 24.7826 62.4798 24.3853 63.0791 24.3853C63.5742 24.4251 64.0351 24.654 64.3665 25.0246L65.0502 24.1638C64.7985 23.8465 64.4756 23.5931 64.1077 23.4245C63.7399 23.2559 63.3374 23.1767 62.9332 23.1935C61.6458 23.1935 60.6545 23.9857 60.6545 25.3511V27.7143C60.6545 29.0546 61.6891 29.6848 62.9651 29.6848C63.7521 29.6801 64.5116 29.3943 65.1071 28.8788"
    fill="#292929"
  />

  <path d="M80.4679 25.0703V25.8534H78.5219V25.1685C78.5219 24.6068 79.005 24.2871 79.5655 24.2871C79.9096 24.2871 80.477 24.5154 80.477 25.0794L80.4679 25.0703ZM81.9331 28.8559L81.3726 27.8559C80.8894 28.2831 80.2713 28.5257 79.6271 28.5408C79.0027 28.5408 78.5196 28.1961 78.5196 27.5179V26.9426H81.7827V25.4082C81.7827 23.8099 80.7733 23.198 79.561 23.198C78.171 23.198 77.2003 23.9127 77.2003 25.4813V27.5773C77.2003 28.9815 78.1117 29.687 79.5223 29.687C80.5591 29.6825 81.1834 29.3445 81.924 28.8468L81.9331 28.8559Z"
    fill="#292929"
  />

  <path d="M52.1823 25.0703V25.8534H50.2363V25.1685C50.2363 24.6068 50.7194 24.2871 51.2799 24.2871C51.624 24.2871 52.1914 24.5154 52.1914 25.0794L52.1823 25.0703ZM53.6475 28.8559L53.0756 27.8559C52.5925 28.2831 51.9743 28.5257 51.3301 28.5408C50.7057 28.5408 50.2226 28.1961 50.2226 27.5179V26.9426H53.4857V25.4082C53.4857 23.8099 52.4763 23.198 51.2663 23.198C49.8762 23.198 48.9055 23.9127 48.9055 25.4813V27.5773C48.9055 28.9815 49.817 29.687 51.2275 29.687C52.2621 29.6825 52.8864 29.3445 53.627 28.8468L53.6475 28.8559Z"
    fill="#292929"
  />

  <defs>
    <linearGradient gradientUnits="userSpaceOnUse"
      id="paint0_linear"
      x1="10.0742"
      x2="10.0742"
      y1="0"
      y2="30.2076"
    >
      <stop stop-color="#E5097F"/>

      <stop offset="0.48"
        stop-color="#E31E24"
      />

      <stop offset="1"
        stop-color="#FFED00"
      />
    </linearGradient>
  </defs>
</svg>