<?xml version="1.0" encoding="UTF-8"?>
<svg xmlns="http://www.w3.org/2000/svg" width="69.8mm" height="11.3mm" xmlns:xlink="http://www.w3.org/1999/xlink" version="1.1" viewBox="0 0 197.8 32">
  <defs>
    <style>
      .cls-1 {
        fill: url(#_Безымянный_градиент);
      }

      .cls-2 {
        fill: #292929;
      }

      .cls-3 {
        fill: none;
        stroke: #292929;
        stroke-linecap: round;
        stroke-miterlimit: 10;
        stroke-width: .8px;
      }
    </style>
    <linearGradient id="_Безымянный_градиент" data-name="Безымянный градиент" x1="10.1" y1="31.9" x2="10.1" y2="1.7" gradientTransform="translate(0 31.9) scale(1 -1)" gradientUnits="userSpaceOnUse">
      <stop offset="0" stop-color="#e5097f"/>
      <stop offset=".5" stop-color="#e31e24"/>
      <stop offset="1" stop-color="#ffed00"/>
    </linearGradient>
  </defs>
  <!-- Generator: Adobe Illustrator 28.6.0, SVG Export Plug-In . SVG Version: 1.2.0 Build 709)  -->
  <g>
    <g id="_Слой_1" data-name="Слой_1">
      <path class="cls-1" d="M0,1.2c2.5,0,3.5,1.7,4.6,3.6l9,15.5c.4.8.8,1.7.8,2.6,0,2.3-3,3.1-4.8,3.2-1.3,0-2.6-.2-3.7-.8l-.7.9c.4,1.8,2.1,4,4.3,3.9,3.9,0,6-3.7,7.6-6.6l2.9-5.5L11.6,3.5c-.8-1.3.5-2.3,1.9-2.3L13.8,0H.3l-.3,1.2Z"/>
      <path class="cls-2" d="M72.5.8c.5.4,1.1.5,1.6.5s1.2-.2,1.6-.5L75.3,0c-.3.2-.7.4-1.1.4S73.4.2,73.1,0l-.5.8ZM76.8,8.2V1.9h-1.3l-2.6,4.3V1.9h-1.3v6.3h1.3l2.6-4.3v4.3h1.3Z"/>
      <path class="cls-2" d="M34.1,6.3c0,.5-.5.9-1,.9-.4,0-.8-.1-1.1-.3v-3.4c.3-.3.8-.4,1.2-.5.1,0,.2,0,.4,0,.1,0,.2.1.3.2,0,0,.2.2.2.3,0,.1,0,.2,0,.4v2.4h0ZM35.4,6.1v-2.2c0-1.4-.7-2.1-2.1-2.1s-1.4.2-1.7.5c0-.2-.3-.4-.5-.5l-.8.7c.3.2.3.6.3.8v6.9h1.3v-2.2c.4.2.9.3,1.3.3,1.2,0,2.2-.8,2.2-2.2Z"/>
      <path class="cls-2" d="M39.6,6.8c-.2.2-.4.3-.6.4-.2,0-.5,0-.7,0-.2,0-.3-.1-.4-.3-.1-.1-.2-.3-.2-.5,0-.1,0-.3,0-.4,0-.1.1-.2.2-.3,0,0,.2-.2.3-.2.1,0,.3,0,.4,0h1v1.3h0ZM47.2,8.2V1.9h-4.3v3.9c0,.8-.5,1.5-1.2,1.5-.3,0-.8-.2-.8-.7v-2.7c0-1.3-.7-2.1-2.2-2.1-.8,0-1.6.3-2.2.9l.7.8c.4-.3.9-.6,1.4-.6.4,0,1,.2,1,.8v.7h-1.1c-1.5,0-2.2,1-2.2,2s.5,1.9,2.1,1.9c.5,0,1.1-.2,1.5-.6.2.2.5.4.9.5.3.1.7.2,1,.1,1.5,0,2.4-.8,2.4-2.6v-2.8h1.8v5.2h1.3Z"/>
      <path class="cls-2" d="M64.4,8.2l-2.3-3.3,2.2-3h-1.5l-1.6,2.5h-.8V1.9h-1.3v6.3h1.3v-2.8h.8l1.8,2.8h1.5Z"/>
      <path class="cls-2" d="M49.8,7.2h1.1c.6,0,.8-.6.8-1.1s-.2-1-.8-1h-1.1v2h0ZM48.5,8.3V1.9h1.3v2.1h.9c1.5,0,2.3.9,2.3,2,0,1.1-.8,2.2-2.3,2.2h-2.2,0Z"/>
      <path class="cls-2" d="M58.2,7.5l-.5-.9c-.7.5-1.2.7-1.6.7s-1-.3-1-.8v-2.5c0-.6.5-1,1.1-1,.5,0,1,.3,1.3.6l.7-.9c-.3-.3-.6-.6-.9-.7-.4-.2-.8-.2-1.2-.2-1.3,0-2.3.8-2.3,2.2v2.4c0,1.3,1,2,2.3,2,.8,0,1.5-.3,2.1-.8"/>
      <path class="cls-2" d="M70.3,8.2V1.9h-1.3l-2.6,4.3V1.9h-1.3v6.3h1.3l2.6-4.3v4.3h1.3Z"/>
      <path class="cls-2" d="M30.2,0h-1.5l-1.1,3.8c0,0,0,.1,0,.2,0,0,0,.1,0,.2,0,0,0,0,0,0s0,0,0,0c0,0,0-.1,0-.2,0,0,0-.1,0-.2L25.8,0h-1.5l2.7,5.9-.2.4c-.2.5-.8,1-1.8,1l.2,1c1.5,0,2.4-.6,2.8-1.7L30.2,0Z"/>
      <path class="cls-2" d="M89.7,11.4c.5.4,1.1.5,1.6.5s1.2-.2,1.6-.5l-.5-.8c-.3.2-.7.4-1.1.4s-.8-.1-1.1-.4l-.5.8ZM93.9,18.9v-6.3h-1.3l-2.6,4.3v-4.3h-1.3v6.3h1.3l2.6-4.3v4.3h1.3Z"/>
      <path class="cls-2" d="M87.4,12.6h-1.3v6.3h1.3v-6.3Z"/>
      <path class="cls-2" d="M82.2,17.8h1.1c.6,0,.8-.6.8-1.1s-.2-1-.8-1h-1.1v2h0ZM80.9,18.9v-6.3h1.3v2.1h.9c1.5,0,2.3.9,2.3,2,0,1.1-.8,2.2-2.3,2.2h-2.2,0Z"/>
      <path class="cls-2" d="M30.3,17c0,.1,0,.2,0,.4,0,.1-.1.2-.2.3,0,0-.2.1-.3.2-.1,0-.2,0-.4,0-.1,0-.3,0-.4,0-.1,0-.2-.2-.3-.3v-3.3h0c.1-.3.2-.4.4-.4.1,0,.3-.1.5,0,.1,0,.2,0,.3,0,.1,0,.2.1.3.2,0,0,.1.2.2.3,0,.1,0,.2,0,.3v2.3h0ZM27.3,14h0v3.5c0,.1-.2.2-.3.3-.1,0-.3,0-.4,0-.1,0-.2,0-.4,0-.1,0-.2-.1-.3-.2s-.2-.2-.2-.3c0-.1,0-.2,0-.4v-2.4c0-.1,0-.2,0-.3,0-.1.1-.2.2-.3,0,0,.2-.2.3-.2.1,0,.2,0,.3,0,.2,0,.3,0,.5.1.1,0,.3.2.4.3ZM31.7,16.8v-2.2c0-1.4-.6-2.1-2-2.1-.4,0-.7,0-1,.3v-1.2h-1.3v1.2c-.3-.2-.7-.3-1-.3-1.4,0-2,.8-2,2.1v2.2c0,1.4.9,2.2,2.1,2.2.3,0,.7-.1.9-.3v2.2h1.3v-2.2c.3.2.6.3.9.3,1.2,0,2.1-.8,2.1-2.2h0Z"/>
      <path class="cls-2" d="M36.1,14.4v.8h-1.9v-.7c0-.6.5-.9,1-.9s.9.2.9.8h0ZM37.5,18.2l-.5-1c-.5.4-1.1.7-1.7.7-.6,0-1.1-.3-1.1-1v-.6h3.3v-1.5c0-1.6-1-2.2-2.2-2.2s-2.4.7-2.4,2.3v2.1c0,1.4.9,2.1,2.3,2.1,1,0,1.7-.3,2.4-.8h0Z"/>
      <path class="cls-2" d="M40.1,17.8c.3-.4.5-1,.5-1.7v-2.4h1.8v4.1h-2.3ZM43.6,17.8v-5.2h-4.3v3.5c0,.8-.5,1.7-1.2,1.8h-.1v2.6h1.2v-1.5h3.8v1.5h1.3v-2.6h-.7Z"/>
      <path class="cls-2" d="M79.6,18.9v-6.3h-1.3v2.5h-2.6v-2.5h-1.3v6.3h1.3v-2.8h2.6v2.8h1.3Z"/>
      <path class="cls-2" d="M54.5,17c0,.5-.5.9-1,.9-.4,0-.8-.1-1.1-.3v-3.4c.3-.3.8-.4,1.2-.5.1,0,.2,0,.4,0,.1,0,.2.1.3.2,0,0,.2.2.2.3,0,.1,0,.2,0,.4v2.4h0ZM55.8,16.8v-2.2c0-1.4-.7-2.1-2.1-2.1s-1.4.2-1.7.5c0-.2-.3-.4-.5-.5l-.8.7c.3.2.3.6.3.8v6.9h1.3v-2.2c.4.2.9.3,1.3.3,1.2,0,2.2-.8,2.2-2.2h0Z"/>
      <path class="cls-2" d="M60,17.5c-.5.6-1.9.7-1.9-.3,0-.1,0-.3,0-.4s.1-.2.2-.3c0,0,.2-.2.3-.2.1,0,.3,0,.4,0h1v1.3h0ZM67.6,18.9v-6.3h-4.3v3.9c0,.8-.5,1.5-1.2,1.5-.3,0-.8-.2-.8-.7v-2.7c0-1.3-.7-2.1-2.2-2.1-.8,0-1.6.3-2.2.9l.7.8c.4-.3.9-.6,1.4-.6.4,0,1,.2,1,.8v.7h-1.1c-1.5,0-2.2,1-2.2,2s.5,1.9,2.1,1.9c.5,0,1.1-.2,1.5-.6.2.2.5.4.9.5.3.1.7.2,1,.1,1.5,0,2.4-.8,2.4-2.6v-2.8h1.8v5.2h1.3Z"/>
      <path class="cls-2" d="M70.2,17.8h1.1c.6,0,.8-.6.8-1.1s-.2-1-.8-1h-1.1v2h0ZM68.9,18.9v-6.3h1.3v2.1h.9c1.5,0,2.3.9,2.3,2,0,1.1-.8,2.2-2.3,2.2h-2.2,0Z"/>
      <path class="cls-2" d="M48.5,14.4v.8h-1.9v-.7c0-.6.5-.9,1-.9s.9.2.9.8h0ZM49.9,18.2l-.5-1c-.5.4-1.1.7-1.7.7-.6,0-1.1-.3-1.1-1v-.6h3.3v-1.5c0-1.6-1-2.2-2.2-2.2s-2.4.7-2.4,2.3v2.1c0,1.4.9,2.1,2.3,2.1,1,0,1.7-.3,2.4-.8Z"/>
      <path class="cls-2" d="M29.7,23.3h-1.4l-1.3,4.9c0-.3,0-.6-.1-.9l-1.1-4h-1.4s1.7,5.3,2.1,6.3c-.2.8-.6,1.4-1.6,1.5v1c1.6,0,2.4-.8,2.7-1.7l2.2-7Z"/>
      <path class="cls-2" d="M35.7,29.6v-6.3h-1.3v2.5h-2.6v-2.5h-1.3v6.3h1.3v-2.8h2.6v2.8h1.3Z"/>
      <path class="cls-2" d="M42.1,29.6v-6.3h-1.3l-2.6,4.3v-4.3h-1.3v6.3h1.3l2.6-4.3v4.3h1.3Z"/>
      <path class="cls-2" d="M44.7,28.5h1.1c.6,0,.8-.5.8-.9,0-.1,0-.2,0-.3,0-.1-.1-.2-.2-.3,0,0-.2-.1-.3-.2-.1,0-.2,0-.3,0h-1.1v1.7h0ZM44.7,24.4v1.4h.9c0,0,.2,0,.3,0,0,0,.2,0,.2-.1,0,0,.1-.1.1-.2,0,0,0-.2,0-.3,0,0,0-.2,0-.3,0,0,0-.2-.1-.2,0,0-.1-.1-.2-.2,0,0-.2,0-.3,0h-1ZM43.4,29.6v-6.3h2.2c1.5,0,2,.9,2,1.7,0,.3,0,.5-.2.7-.1.2-.3.4-.6.5.3.1.6.3.8.6.2.3.3.6.3.9,0,.9-.7,1.9-2.2,1.9h-2.3,0Z"/>
      <path class="cls-2" d="M72,23.3v1.1h1.6v5.2h1.4v-5.2h1.6v-1.1h-4.5Z"/>
      <path class="cls-2" d="M82.4,23.3v1.1h1.6v5.2s0,0,0,0h1.3v-5.2h1.6v-1.1h-4.5Z"/>
      <path class="cls-2" d="M71.1,29.6v-6.3h-1.3l-2.6,4.3v-4.3h-1.3v6.3h1.3l2.6-4.3v4.3h1.3Z"/>
      <path class="cls-2" d="M58.2,27.6c0,.5-.5.9-1,.9-.4,0-.8-.1-1.1-.3v-3.4c.3-.3.8-.4,1.2-.5.1,0,.2,0,.4,0,.1,0,.2.1.3.2,0,0,.2.2.2.3,0,.1,0,.2,0,.4v2.4h0ZM59.5,27.5v-2.2c0-1.4-.7-2.1-2.1-2.1s-1.4.2-1.7.5c0-.2-.3-.4-.5-.5l-.8.7c.3.2.3.6.3.8v6.9h1.3v-2.2c.4.2.9.3,1.3.3,1.2,0,2.2-.8,2.2-2.2Z"/>
      <path class="cls-2" d="M65.1,28.9l-.5-.9c-.7.5-1.2.7-1.6.7s-1-.3-1-.8v-2.4c0-.6.5-1,1.1-1,.5,0,1,.3,1.3.6l.7-.9c-.3-.3-.6-.6-.9-.7-.4-.2-.8-.2-1.2-.2-1.3,0-2.3.8-2.3,2.2v2.4c0,1.3,1,2,2.3,2,.8,0,1.5-.3,2.1-.8"/>
      <path class="cls-2" d="M80.5,25.1v.8h-1.9v-.7c0-.6.5-.9,1-.9s.9.2.9.8h0ZM81.9,28.9l-.6-1c-.5.4-1.1.7-1.7.7-.6,0-1.1-.3-1.1-1v-.6h3.3v-1.5c0-1.6-1-2.2-2.2-2.2s-2.4.7-2.4,2.3v2.1c0,1.4.9,2.1,2.3,2.1,1,0,1.7-.3,2.4-.8h0Z"/>
      <path class="cls-2" d="M52.2,25.1v.8h-1.9v-.7c0-.6.5-.9,1-.9s.9.2.9.8h0ZM53.6,28.9l-.6-1c-.5.4-1.1.7-1.7.7-.6,0-1.1-.3-1.1-1v-.6h3.3v-1.5c0-1.6-1-2.2-2.2-2.2s-2.4.7-2.4,2.3v2.1c0,1.4.9,2.1,2.3,2.1,1,0,1.7-.3,2.4-.8h0Z"/>
      <line class="cls-3" x1="102.8" y1="2.1" x2="102.8" y2="29.4"/>
      <g>
        <path class="cls-2" d="M112.9,12.5h3.4v.9h-4.3v-7.4h4.2v.9h-3.3v2.3h3v.9h-3v2.5Z"/>
        <path class="cls-2" d="M122.5,12.5h.8v2.4h-.8v-1.5h-4.6v1.5h-.8v-2.4h.6c.2-.2.3-.4.4-.7,0-.3.2-.7.2-1.3,0-.6.2-1.6.3-2.9h4v4.9ZM119.4,8.5c0,.9-.1,1.7-.2,2.2s-.1.9-.2,1.2c0,.3-.2.5-.3.7h3v-4.1h-2.3Z"/>
        <path class="cls-2" d="M128.8,7.7h.5v5.7h-.8v-4.1l-3.3,4.1h-.5v-5.7h.9v4l3.3-4Z"/>
        <path class="cls-2" d="M135.1,7.7h.9v5.7h-.9v-2.5h-3.1v2.5h-.9v-5.7h.9v2.3h3.1v-2.3Z"/>
        <path class="cls-2" d="M140.1,9.5c.6,0,1.1.2,1.5.5.4.4.6.8.6,1.4s-.2,1-.6,1.4c-.4.4-.9.5-1.5.5h-2.3v-5.7h.9v1.8h1.4ZM139.9,12.6c.4,0,.7-.1.9-.3.2-.2.3-.5.3-.8s-.1-.6-.3-.8c-.2-.2-.5-.3-.9-.3h-1.3v2.3h1.3ZM143.1,7.7h.9v5.7h-.9v-5.7Z"/>
        <path class="cls-2" d="M150,7.7h.5v5.7h-.8v-4.1l-3.3,4.1h-.5v-5.7h.9v4l3.3-4ZM149.6,5.8v.7h-2.8v-.7h2.8Z"/>
        <path class="cls-2" d="M158.8,13.4l-2-2.6h-.8v2.6h-.9v-5.7h.9v2.3h.8l1.8-2.3h1.1l-2.1,2.7,2.3,3h-1.1Z"/>
        <path class="cls-2" d="M165.5,7.7h.7v5.7h-.8v-.9c-.4.3-.7.6-1.1.7-.4.2-.8.3-1.3.3-.8,0-1.5-.3-2.1-.9s-.8-1.3-.8-2.1.3-1.6.8-2.1c.6-.6,1.3-.9,2.1-.9s.9,0,1.3.3c.4.2.7.4,1,.7v-.9ZM161.7,12c.4.4.9.6,1.5.6s1.1-.2,1.5-.6.6-.9.6-1.5-.2-1.1-.6-1.5-.9-.6-1.5-.6-1.1.2-1.5.6-.6.9-.6,1.5.2,1.1.6,1.5Z"/>
        <path class="cls-2" d="M172.5,7.7v.8h-2.1v4.9h-.9v-4.9h-2.1v-.8h5.1Z"/>
        <path class="cls-2" d="M178.2,7.7h.7v5.7h-.8v-.9c-.4.3-.7.6-1.1.7-.4.2-.8.3-1.3.3-.8,0-1.5-.3-2.1-.9s-.8-1.3-.8-2.1.3-1.6.8-2.1c.6-.6,1.3-.9,2.1-.9s.9,0,1.3.3c.4.2.7.4,1,.7v-.9ZM174.4,12c.4.4.9.6,1.5.6s1.1-.2,1.5-.6.6-.9.6-1.5-.2-1.1-.6-1.5-.9-.6-1.5-.6-1.1.2-1.5.6-.6.9-.6,1.5.2,1.1.6,1.5Z"/>
        <path class="cls-2" d="M181.7,7.7h3.7v5.7h-.9v-4.9h-2.1l-.3,2.9c0,.8-.3,1.3-.6,1.6-.3.3-.8.5-1.4.5h-.2v-.8h.2c.3,0,.6,0,.7-.3.2-.2.3-.5.3-.9l.4-3.7Z"/>
        <path class="cls-2" d="M189.9,13.5c-.6,0-1.1-.1-1.5-.4-.5-.3-.8-.6-1.1-1.1s-.4-1-.4-1.5c0-.9.3-1.6.9-2.1.6-.6,1.3-.8,2.2-.8s1.1.1,1.5.4.8.6,1.1,1.1c.3.5.4,1,.4,1.5,0,.9-.3,1.6-.9,2.1s-1.3.9-2.2.9ZM188.3,12c.4.4.9.6,1.5.6s1.1-.2,1.5-.6c.4-.4.6-.9.6-1.5s-.2-1.1-.6-1.5c-.4-.4-.9-.6-1.5-.6s-1.1.2-1.5.6c-.4.4-.6.9-.6,1.5s.2,1.1.6,1.5Z"/>
        <path class="cls-2" d="M197.8,7.7v.8h-2.7v4.9h-.9v-5.7h3.6Z"/>
        <path class="cls-2" d="M114.5,26.2c-.6,0-1.1-.1-1.5-.4-.5-.3-.8-.6-1.1-1.1s-.4-1-.4-1.5c0-.9.3-1.6.9-2.1.6-.6,1.3-.8,2.2-.8s1.1.1,1.5.4.8.6,1.1,1.1c.3.5.4,1,.4,1.5,0,.9-.3,1.6-.9,2.1s-1.3.9-2.2.9ZM113,24.7c.4.4.9.6,1.5.6s1.1-.2,1.5-.6c.4-.4.6-.9.6-1.5s-.2-1.1-.6-1.5c-.4-.4-.9-.6-1.5-.6s-1.1.2-1.5.6c-.4.4-.6.9-.6,1.5s.2,1.1.6,1.5Z"/>
        <path class="cls-2" d="M122.8,20.4h.9v5.7h-.9v-2.5h-3.1v2.5h-.9v-5.7h.9v2.3h3.1v-2.3Z"/>
        <path class="cls-2" d="M126.5,20.4h3.7v5.7h-.9v-4.9h-2.1l-.3,2.9c0,.8-.3,1.3-.6,1.6-.3.3-.8.5-1.4.5h-.2v-.8h.2c.3,0,.6,0,.7-.3.2-.2.3-.5.3-.9l.4-3.7Z"/>
        <path class="cls-2" d="M136.9,20.4h.7v5.7h-.8v-.9c-.4.3-.7.6-1.1.7-.4.2-.8.3-1.3.3-.8,0-1.5-.3-2.1-.9s-.8-1.3-.8-2.1.3-1.6.8-2.1c.6-.6,1.3-.9,2.1-.9s.9,0,1.3.3.7.4,1,.7v-.9ZM133.1,24.7c.4.4.9.6,1.5.6s1.1-.2,1.5-.6.6-.9.6-1.5-.2-1.1-.6-1.5c-.4-.4-.9-.6-1.5-.6s-1.1.2-1.5.6c-.4.4-.6.9-.6,1.5s.2,1.1.6,1.5Z"/>
        <path class="cls-2" d="M143.6,20.4h.5v5.7h-.8v-4.1l-3.3,4.1h-.5v-5.7h.9v4l3.3-4ZM143.2,18.5v.7h-2.8v-.7h2.8Z"/>
        <path class="cls-2" d="M149.9,20.4h.9v5.7h-.9v-2.5h-3.1v2.5h-.9v-5.7h.9v2.3h3.1v-2.3Z"/>
        <path class="cls-2" d="M152.4,23.5v-.9h3.4v.9h-3.4Z"/>
        <path class="cls-2" d="M161,26.1l-2-2.6h-.8v2.6h-.9v-5.7h.9v2.3h.8l1.8-2.3h1.1l-2.1,2.7,2.3,3h-1.1Z"/>
        <path class="cls-2" d="M167.2,20.4h1l-2.7,5.9c-.2.5-.4.8-.6,1.1-.2.3-.4.4-.7.6-.3.1-.6.2-.9.2h-.5v-.8h.5c.4,0,.7,0,.9-.2.2-.2.4-.5.6-1l.2-.4-2.5-5.3h1l2,4.3,1.9-4.3Z"/>
        <path class="cls-2" d="M172.3,20.2c.9,0,1.6.3,2.1.8.6.6.8,1.3.8,2.1s-.3,1.6-.8,2.1c-.6.6-1.3.9-2.1.9s-1.6-.3-2.1-.9v2.8h-.9v-7.7h.6l.2.9c.3-.3.6-.6,1-.7.4-.2.8-.3,1.3-.3ZM172.2,25.3c.6,0,1.1-.2,1.5-.6s.6-.9.6-1.5-.2-1.1-.6-1.5c-.4-.4-.9-.6-1.5-.6s-1.1.2-1.5.6c-.4.4-.6.9-.6,1.5s0,.8.3,1.1c.2.3.4.6.8.8.3.2.7.3,1.1.3Z"/>
        <path class="cls-2" d="M179.1,26.2c-.6,0-1.1-.1-1.5-.4-.5-.3-.8-.6-1.1-1.1-.3-.5-.4-1-.4-1.5,0-.9.3-1.6.9-2.1s1.3-.9,2.1-.9,1.3.2,1.8.6.8.9,1,1.5h-.9c-.2-.4-.4-.7-.8-.9-.3-.2-.7-.3-1.1-.3s-1.1.2-1.5.6c-.4.4-.6.9-.6,1.5s0,.8.3,1.1c.2.3.4.6.7.8s.7.3,1.1.3.8-.1,1.1-.3c.3-.2.6-.5.8-.9h.9c-.2.6-.5,1.1-1,1.5-.5.4-1.1.6-1.8.6Z"/>
        <path class="cls-2" d="M185.7,26.2c-.6,0-1.1-.1-1.5-.4-.5-.3-.8-.6-1.1-1.1s-.4-1-.4-1.5c0-.9.3-1.6.9-2.1.6-.6,1.3-.8,2.2-.8s1.1.1,1.5.4.8.6,1.1,1.1c.3.5.4,1,.4,1.5,0,.9-.3,1.6-.9,2.1s-1.3.9-2.2.9ZM184.2,24.7c.4.4.9.6,1.5.6s1.1-.2,1.5-.6c.4-.4.6-.9.6-1.5s-.2-1.1-.6-1.5c-.4-.4-.9-.6-1.5-.6s-1.1.2-1.5.6c-.4.4-.6.9-.6,1.5s.2,1.1.6,1.5Z"/>
        <path class="cls-2" d="M193.8,23.1c.3.1.5.3.7.5s.3.5.3.8c0,.5-.2.8-.5,1.1s-.8.5-1.3.5h-2.9v-5.7h2.8c.5,0,.9.1,1.2.4.3.3.4.6.4,1s0,.4,0,.5c0,.2-.2.3-.3.4-.1.1-.2.2-.4.3ZM193.7,22c0-.2,0-.4-.2-.6-.2-.1-.4-.2-.6-.2h-1.8v1.5h1.8c.3,0,.5,0,.6-.2.2-.1.2-.3.2-.5ZM192.9,25.2c.2,0,.3,0,.5-.1.1,0,.3-.2.3-.3,0-.1.1-.3.1-.4s0-.3-.1-.4c0-.1-.2-.2-.3-.3-.1,0-.3-.1-.5-.1h-1.9v1.7h1.9Z"/>
      </g>
    </g>
    <metadata>
      <sfw xmlns="http://ns.adobe.com/SaveForWeb/1.0/">
        <slices/>
        <sliceSourceBounds x="0" y="0" width="197.8" height="32" bottomLeftOrigin="true"/>
      </sfw>
    </metadata>
  </g>
</svg>